<svg xmlns="http://www.w3.org/2000/svg" width="16.646" height="14.796" viewBox="0 0 16.646 14.796">
  <path id="Icon_awesome-cart-plus" data-name="Icon awesome-cart-plus" d="M14.586,9.248H6.114l.189.925H14.06a.694.694,0,0,1,.676.847l-.159.7a1.619,1.619,0,1,1-1.838.3H6.681a1.618,1.618,0,1,1-1.938-.247L2.713,1.85H.694A.694.694,0,0,1,0,1.156V.694A.694.694,0,0,1,.694,0H3.657a.694.694,0,0,1,.679.555L4.6,1.85H15.952a.694.694,0,0,1,.676.847L15.262,8.708A.694.694,0,0,1,14.586,9.248Zm-2.8-4.393H10.4V3.7a.462.462,0,0,0-.462-.462H9.479a.462.462,0,0,0-.462.462V4.855H7.629a.462.462,0,0,0-.462.462V5.78a.462.462,0,0,0,.462.462H9.016V7.4a.462.462,0,0,0,.462.462h.462A.462.462,0,0,0,10.4,7.4V6.242h1.387a.462.462,0,0,0,.462-.462V5.317A.462.462,0,0,0,11.791,4.855Z" fill="#f44236"/>
</svg>
