<svg xmlns="http://www.w3.org/2000/svg" width="31.493" height="26.993" viewBox="0 0 31.493 26.993">
  <path id="Icon_ionic-md-basket" data-name="Icon ionic-md-basket" d="M25.46,14.428,19.188,5.1A1.422,1.422,0,0,0,18,4.5a1.4,1.4,0,0,0-1.188.612L10.54,14.428H3.684a1.433,1.433,0,0,0-1.434,1.42,1.256,1.256,0,0,0,.056.387L5.941,29.419a2.845,2.845,0,0,0,2.749,2.074H27.3a2.875,2.875,0,0,0,2.763-2.074L33.7,16.235l.042-.387a1.433,1.433,0,0,0-1.434-1.42Zm-11.756,0L18,8.17l4.3,6.258ZM18,25.812a2.848,2.848,0,1,1,2.862-2.848A2.861,2.861,0,0,1,18,25.812Z" transform="translate(-2.25 -4.5)" fill="#7d391c"/>
</svg>
