<svg xmlns="http://www.w3.org/2000/svg" width="15.895" height="15.895" viewBox="0 0 15.895 15.895">
  <path id="Icon_material-call" data-name="Icon material-call" d="M7.7,11.379A13.377,13.377,0,0,0,13.516,17.2l1.943-1.943a.878.878,0,0,1,.9-.212,10.073,10.073,0,0,0,3.153.5.886.886,0,0,1,.883.883v3.082a.886.886,0,0,1-.883.883A15.011,15.011,0,0,1,4.5,5.383.886.886,0,0,1,5.383,4.5H8.474a.886.886,0,0,1,.883.883,10.032,10.032,0,0,0,.5,3.153.886.886,0,0,1-.221.9Z" transform="translate(-4.5 -4.5)" fill="#f44236"/>
</svg>
