<svg xmlns="http://www.w3.org/2000/svg" width="16.566" height="12.271" viewBox="0 0 16.566 12.271">
  <path id="Icon_metro-coins" data-name="Icon metro-coins" d="M20.933,18.142H13.419a4.836,4.836,0,0,0,.5-1.227h7.013a.614.614,0,1,1,0,1.227Zm0-1.841H14.039a4.467,4.467,0,0,0,0-1.227h6.894a.614.614,0,0,1,0,1.227Zm0-1.841H13.92a4.858,4.858,0,0,0-.5-1.227h7.513a.614.614,0,0,1,0,1.227Zm0-1.841H13a4.914,4.914,0,0,0-1.453-1.227h9.385a.614.614,0,1,1,0,1.227Zm0-1.841H11.116a.614.614,0,0,1,0-1.227h9.817a.614.614,0,0,1,0,1.227Zm0-1.841H11.116a.614.614,0,0,1,0-1.227h9.817a.614.614,0,0,1,0,1.227ZM13.57,15.688a4.295,4.295,0,1,1-4.295-4.295A4.3,4.3,0,0,1,13.57,15.688Zm-2.774.467a1.312,1.312,0,0,0-.242-.383,1.581,1.581,0,0,0-.341-.28,3.933,3.933,0,0,0-.391-.209q-.194-.089-.391-.174a2.55,2.55,0,0,1-.343-.176.864.864,0,0,1-.242-.215.463.463,0,0,1-.09-.286.562.562,0,0,1,.04-.21.441.441,0,0,1,.123-.17.594.594,0,0,1,.2-.11.921.921,0,0,1,.288-.04,1.378,1.378,0,0,1,.387.051,2.213,2.213,0,0,1,.31.115q.134.063.226.116a.318.318,0,0,0,.134.053.094.094,0,0,0,.067-.023.151.151,0,0,0,.038-.073.72.72,0,0,0,.019-.126c0-.052.006-.115.006-.189s0-.122,0-.166a.868.868,0,0,0-.013-.112.348.348,0,0,0-.023-.071.29.29,0,0,0-.052-.064.611.611,0,0,0-.157-.1,1.817,1.817,0,0,0-.272-.1,2.411,2.411,0,0,0-.329-.072c-.024,0-.048,0-.072-.006V12.5h-.6v.634a2.212,2.212,0,0,0-.323.067,1.518,1.518,0,0,0-.529.266,1.287,1.287,0,0,0-.356.448,1.573,1.573,0,0,0-.04,1.159,1.317,1.317,0,0,0,.24.385,1.574,1.574,0,0,0,.335.279,3.471,3.471,0,0,0,.387.209c.133.061.262.119.387.174a2.575,2.575,0,0,1,.335.176.921.921,0,0,1,.24.215.465.465,0,0,1,.092.29.644.644,0,0,1-.053.266.538.538,0,0,1-.155.2.729.729,0,0,1-.247.125,1.137,1.137,0,0,1-.33.044,1.727,1.727,0,0,1-.493-.063,2.259,2.259,0,0,1-.366-.141,2.424,2.424,0,0,1-.251-.14.321.321,0,0,0-.152-.063.111.111,0,0,0-.067.021.138.138,0,0,0-.046.071.594.594,0,0,0-.025.131c-.006.054-.008.12-.008.2a1.359,1.359,0,0,0,.021.271.283.283,0,0,0,.071.144.817.817,0,0,0,.163.114,1.678,1.678,0,0,0,.282.123,2.871,2.871,0,0,0,.389.1,2.586,2.586,0,0,0,.477.041h.022v.591h.6v-.67c.029-.007.06-.011.088-.019a1.727,1.727,0,0,0,.583-.3,1.42,1.42,0,0,0,.4-.492,1.534,1.534,0,0,0,.145-.686,1.34,1.34,0,0,0-.091-.518ZM13,18.756h7.932a.614.614,0,1,1,0,1.227H11.547A4.914,4.914,0,0,0,13,18.756Z" transform="translate(-4.981 -7.712)" fill="#f44236"/>
</svg>
