<svg xmlns="http://www.w3.org/2000/svg" width="26.873" height="17.915" viewBox="0 0 26.873 17.915">
  <path id="Icon_awesome-eye" data-name="Icon awesome-eye" d="M26.711,12.776A14.964,14.964,0,0,0,13.436,4.5,14.966,14.966,0,0,0,.162,12.777a1.509,1.509,0,0,0,0,1.362,14.964,14.964,0,0,0,13.274,8.276,14.966,14.966,0,0,0,13.274-8.277A1.509,1.509,0,0,0,26.711,12.776Zm-13.274,7.4a6.718,6.718,0,1,1,6.718-6.718A6.718,6.718,0,0,1,13.436,20.176Zm0-11.2a4.447,4.447,0,0,0-1.181.177,2.232,2.232,0,0,1-3.121,3.121,4.469,4.469,0,1,0,4.3-3.3Z" transform="translate(0 -4.5)" fill="#f44236"/>
</svg>
