<svg id="Icon_ionic-ios-cart" data-name="Icon ionic-ios-cart" xmlns="http://www.w3.org/2000/svg" width="29.239" height="27.007" viewBox="0 0 29.239 27.007">
  <path id="Path_5" data-name="Path 5" d="M12.938,29.813a1.688,1.688,0,1,1-1.687-1.688,1.688,1.688,0,0,1,1.688,1.688Z" transform="translate(-3.382 -4.493)" fill="#7d391c"/>
  <path id="Path_6" data-name="Path 6" d="M28.723,29.813a1.687,1.687,0,1,1-1.687-1.688,1.687,1.687,0,0,1,1.687,1.688Z" transform="translate(-3.382 -4.493)" fill="#7d391c"/>
  <path id="Path_7" data-name="Path 7" d="M32.611,9.3a.413.413,0,0,0-.366-.3L9.345,6.785a.7.7,0,0,1-.527-.33,7.16,7.16,0,0,0-.858-1.308c-.541-.661-1.561-.64-3.431-.654a1.024,1.024,0,0,0-1.146.991,1,1,0,0,0,1.1.991,9.342,9.342,0,0,1,1.828.134c.33.1.6.64.7,1.111a.026.026,0,0,0,.007.021c.014.084.141.717.141.724L9.963,23.344a5.468,5.468,0,0,0,1.02,2.51A2.806,2.806,0,0,0,13.3,26.993H29.932a1,1,0,0,0,1.013-.942.98.98,0,0,0-.984-1.027H13.282a.817.817,0,0,1-.584-.2A3.155,3.155,0,0,1,11.89,23l-.3-1.666a.039.039,0,0,1,.028-.042l19.526-3.3a.411.411,0,0,0,.345-.366l1.125-8.142A.4.4,0,0,0,32.611,9.3Z" transform="translate(-3.382 -4.493)" fill="#7d391c"/>
</svg>
